<svg width="122" height="30" viewBox="0 0 122 30" fill="none" xmlns="http://www.w3.org/2000/svg">
<path d="M10.2852 21.4414L9.60156 22.2812L0.128906 15.2305L9.60156 7.59375L10.2852 8.16016L5.03125 15.2305L10.2852 21.4414ZM35.5977 5.75781C35.5977 6.7474 35.4023 7.73047 35.0117 8.70703C34.6211 9.68359 34.0938 10.5885 33.4297 11.4219C32.7786 12.2552 32.0234 12.9844 31.1641 13.6094C30.3047 14.2344 29.4128 14.6836 28.4883 14.957L28.0781 14.2734C28.625 14 29.1263 13.6484 29.582 13.2188C30.0378 12.7891 30.4284 12.3073 30.7539 11.7734C31.0794 11.2266 31.3268 10.6536 31.4961 10.0547C31.6784 9.44271 31.7695 8.82422 31.7695 8.19922C31.7695 7.48307 31.6654 6.80599 31.457 6.16797C31.2487 5.52995 30.9427 4.97656 30.5391 4.50781C30.1354 4.02604 29.6341 3.64844 29.0352 3.375C28.4492 3.10156 27.7721 2.96484 27.0039 2.96484C26.0664 2.96484 25.207 3.14714 24.4258 3.51172C23.6445 3.8763 22.9414 4.37109 22.3164 4.99609C21.6914 5.60807 21.1445 6.31771 20.6758 7.125C20.2201 7.91927 19.8359 8.75911 19.5234 9.64453C19.224 10.5169 18.9961 11.4023 18.8398 12.3008C18.6836 13.1992 18.6055 14.0456 18.6055 14.8398C18.6055 15.6471 18.6901 16.4805 18.8594 17.3398C19.0286 18.1992 19.276 19.0456 19.6016 19.8789C19.9271 20.7122 20.3307 21.5 20.8125 22.2422C21.2943 22.9844 21.8477 23.6354 22.4727 24.1953C23.1107 24.7552 23.8138 25.2044 24.582 25.543C25.3633 25.8685 26.2096 26.0312 27.1211 26.0312C27.7461 26.0312 28.3516 25.9466 28.9375 25.7773C29.5365 25.6081 30.1094 25.3802 30.6562 25.0938C31.2031 24.8073 31.7174 24.4688 32.1992 24.0781C32.694 23.6875 33.1497 23.2643 33.5664 22.8086L34.2109 23.4336C33.638 24.1888 32.9544 24.918 32.1602 25.6211C31.3789 26.3112 30.5326 26.9297 29.6211 27.4766C28.7096 28.0104 27.7526 28.4401 26.75 28.7656C25.7604 29.0781 24.7773 29.2344 23.8008 29.2344C22.8503 29.2344 21.9518 29.0716 21.1055 28.7461C20.2721 28.4076 19.5039 27.9583 18.8008 27.3984C18.0977 26.8255 17.4661 26.1615 16.9062 25.4062C16.3594 24.638 15.8906 23.8242 15.5 22.9648C15.1224 22.1055 14.8294 21.2201 14.6211 20.3086C14.4258 19.3971 14.3281 18.5052 14.3281 17.6328C14.3281 16.3698 14.5365 15.0742 14.9531 13.7461C15.3828 12.4049 15.9688 11.1094 16.7109 9.85938C17.4531 8.59635 18.3255 7.40495 19.3281 6.28516C20.3438 5.16536 21.431 4.1888 22.5898 3.35547C23.7617 2.52214 24.9792 1.86458 26.2422 1.38281C27.5182 0.888021 28.7878 0.640625 30.0508 0.640625C30.832 0.640625 31.5612 0.757812 32.2383 0.992188C32.9154 1.21354 33.5013 1.53906 33.9961 1.96875C34.4909 2.39844 34.8815 2.93229 35.168 3.57031C35.4544 4.20833 35.5977 4.9375 35.5977 5.75781ZM43.8594 29.4492C42.8958 29.4492 41.9909 29.2799 41.1445 28.9414C40.3112 28.5898 39.582 28.1081 38.957 27.4961C38.3451 26.8841 37.8568 26.168 37.4922 25.3477C37.1406 24.5143 36.9648 23.6094 36.9648 22.6328C36.9648 21.526 37.1471 20.4909 37.5117 19.5273C37.8763 18.5508 38.3776 17.6719 39.0156 16.8906C39.6667 16.1094 40.4284 15.4323 41.3008 14.8594C42.1862 14.2865 43.1432 13.8372 44.1719 13.5117L44.7383 14.1953C44.1523 14.625 43.6055 15.1198 43.0977 15.6797C42.5898 16.2266 42.1471 16.8255 41.7695 17.4766C41.3919 18.1146 41.0924 18.7917 40.8711 19.5078C40.6497 20.2109 40.5391 20.9336 40.5391 21.6758C40.5391 22.3008 40.6302 22.9583 40.8125 23.6484C40.9948 24.3385 41.2682 24.9701 41.6328 25.543C41.9974 26.1159 42.4531 26.5911 43 26.9688C43.5599 27.3333 44.2044 27.5156 44.9336 27.5156C45.5846 27.5156 46.1445 27.3984 46.6133 27.1641C47.0951 26.9297 47.4922 26.6107 47.8047 26.207C48.1172 25.8034 48.3516 25.3346 48.5078 24.8008C48.6641 24.2539 48.7422 23.681 48.7422 23.082C48.7422 22.3789 48.6055 21.6628 48.332 20.9336C48.0586 20.1914 47.681 19.5078 47.1992 18.8828C46.7305 18.2578 46.1771 17.737 45.5391 17.3203C44.901 16.9036 44.2174 16.6628 43.4883 16.5977C43.944 16.0768 44.4453 15.5951 44.9922 15.1523C45.5391 14.7096 46.0924 14.2865 46.6523 13.8828C47.4076 14.1302 48.0716 14.4948 48.6445 14.9766C49.2305 15.4583 49.7188 16.0117 50.1094 16.6367C50.513 17.2617 50.819 17.9453 51.0273 18.6875C51.2357 19.4167 51.3398 20.1589 51.3398 20.9141C51.3398 21.9427 51.1576 22.9648 50.793 23.9805C50.4414 24.9961 49.9336 25.9141 49.2695 26.7344C48.6185 27.5417 47.8307 28.1992 46.9062 28.707C45.9948 29.2018 44.9792 29.4492 43.8594 29.4492ZM61.3789 26.7148C61.2227 27.0534 61.0208 27.3724 60.7734 27.6719C60.5391 27.9714 60.2721 28.2383 59.9727 28.4727C59.6732 28.707 59.3411 28.8893 58.9766 29.0195C58.625 29.1628 58.2604 29.2344 57.8828 29.2344C56.8672 29.2344 56.125 28.9544 55.6562 28.3945C55.2005 27.8216 54.9727 27.0469 54.9727 26.0703V2.24219L58.5664 0.992188V26.168C58.5664 26.4284 58.625 26.6693 58.7422 26.8906C58.8594 27.099 59.0677 27.2031 59.3672 27.2031C59.6667 27.2031 59.9466 27.0859 60.207 26.8516C60.4805 26.6042 60.6953 26.3633 60.8516 26.1289L61.3789 26.7148ZM70.5586 26.7148C70.4023 27.0534 70.2005 27.3724 69.9531 27.6719C69.7188 27.9714 69.4518 28.2383 69.1523 28.4727C68.8529 28.707 68.5208 28.8893 68.1562 29.0195C67.8047 29.1628 67.4401 29.2344 67.0625 29.2344C66.0469 29.2344 65.3047 28.9544 64.8359 28.3945C64.3802 27.8216 64.1523 27.0469 64.1523 26.0703V2.24219L67.7461 0.992188V26.168C67.7461 26.4284 67.8047 26.6693 67.9219 26.8906C68.0391 27.099 68.2474 27.2031 68.5469 27.2031C68.8464 27.2031 69.1263 27.0859 69.3867 26.8516C69.6602 26.6042 69.875 26.3633 70.0312 26.1289L70.5586 26.7148ZM76.9648 3.51172L75.9297 10.6406L74.0156 11.2461L72.8438 4.91797L76.9648 3.51172ZM79.6602 26.7148C79.3607 27.3529 79.0091 27.8411 78.6055 28.1797C78.2148 28.5182 77.8372 28.7656 77.4727 28.9219C77.043 29.1042 76.6068 29.2083 76.1641 29.2344C75.5911 29.2344 75.1159 29.1432 74.7383 28.9609C74.3607 28.7786 74.0612 28.5378 73.8398 28.2383C73.6185 27.9388 73.4622 27.6003 73.3711 27.2227C73.293 26.8451 73.2539 26.4609 73.2539 26.0703V15.1133L76.8477 13.8828V26.168C76.8477 26.4805 76.9193 26.7279 77.0625 26.9102C77.2057 27.0924 77.388 27.1901 77.6094 27.2031C77.8438 27.2031 78.0911 27.1185 78.3516 26.9492C78.625 26.7799 78.8854 26.5065 79.1328 26.1289L79.6602 26.7148ZM90.7148 23.6094C90.7148 24.4167 90.5651 25.1719 90.2656 25.875C89.9661 26.5781 89.556 27.1901 89.0352 27.7109C88.5273 28.2318 87.9154 28.6419 87.1992 28.9414C86.4961 29.2409 85.7344 29.3906 84.9141 29.3906C84.5625 29.3906 84.1784 29.3581 83.7617 29.293C83.3581 29.2279 82.9544 29.1302 82.5508 29C82.1471 28.8698 81.763 28.707 81.3984 28.5117C81.0469 28.3164 80.7539 28.082 80.5195 27.8086L82.8242 24.8008C82.9805 25.0482 83.1693 25.3216 83.3906 25.6211C83.625 25.9076 83.8789 26.1745 84.1523 26.4219C84.4388 26.6693 84.7383 26.8776 85.0508 27.0469C85.3763 27.2031 85.7018 27.2812 86.0273 27.2812C86.4049 27.2812 86.7565 27.2161 87.082 27.0859C87.4206 26.9557 87.7135 26.7734 87.9609 26.5391C88.2083 26.2917 88.4036 26.0052 88.5469 25.6797C88.6901 25.3542 88.7617 24.9961 88.7617 24.6055C88.7617 24.0846 88.5794 23.6094 88.2148 23.1797C87.8633 22.737 87.4401 22.3138 86.9453 21.9102C86.4635 21.4935 85.9557 21.0703 85.4219 20.6406C84.901 20.1979 84.4779 19.7161 84.1523 19.1953L82.1211 22.1641L81.3594 21.5977L83.7031 18.3555C83.5208 17.9779 83.3776 17.5807 83.2734 17.1641C83.1693 16.7474 83.1172 16.3307 83.1172 15.9141C83.1172 15.5625 83.1758 15.1914 83.293 14.8008C83.4102 14.4102 83.5794 14.0521 83.8008 13.7266C84.0221 13.401 84.2891 13.1341 84.6016 12.9258C84.9271 12.7044 85.2982 12.5938 85.7148 12.5938C86.1185 12.5938 86.457 12.7174 86.7305 12.9648C87.0169 13.2122 87.1602 13.5573 87.1602 14C87.1602 14.2344 87.1211 14.4688 87.043 14.7031C86.9648 14.9375 86.8672 15.1719 86.75 15.4062C86.6328 15.6406 86.5026 15.8685 86.3594 16.0898C86.2161 16.2982 86.0794 16.4935 85.9492 16.6758C86.2617 17.1185 86.6003 17.5026 86.9648 17.8281C87.3294 18.1536 87.6875 18.4596 88.0391 18.7461C88.3906 19.0326 88.7292 19.319 89.0547 19.6055C89.3802 19.8919 89.6602 20.2174 89.8945 20.582C90.1419 20.9466 90.3372 21.3698 90.4805 21.8516C90.6367 22.3333 90.7148 22.9193 90.7148 23.6094ZM86.2812 14.3516C86.2812 14.1693 86.2161 14.0326 86.0859 13.9414C85.9688 13.8503 85.832 13.8047 85.6758 13.8047C85.4544 13.8047 85.2982 13.8828 85.207 14.0391C85.1159 14.1823 85.0703 14.3451 85.0703 14.5273C85.0703 14.7878 85.1094 15.0417 85.1875 15.2891C85.2786 15.5365 85.3893 15.7708 85.5195 15.9922C85.5716 15.901 85.6367 15.7839 85.7148 15.6406C85.806 15.4974 85.8906 15.3477 85.9688 15.1914C86.0599 15.0221 86.1315 14.8659 86.1836 14.7227C86.2487 14.5664 86.2812 14.4427 86.2812 14.3516ZM109.152 26.6758C108.996 27.0143 108.801 27.3333 108.566 27.6328C108.332 27.9323 108.059 28.1992 107.746 28.4336C107.447 28.668 107.115 28.8568 106.75 29C106.398 29.1302 106.027 29.1953 105.637 29.1953C104.608 29.1953 103.866 28.9154 103.41 28.3555C102.967 27.7826 102.746 27.0078 102.746 26.0312V25.6797C102.512 26.1224 102.245 26.5651 101.945 27.0078C101.659 27.4505 101.327 27.8477 100.949 28.1992C100.585 28.5508 100.174 28.8372 99.7188 29.0586C99.263 29.2799 98.7552 29.3906 98.1953 29.3906C97.349 29.3906 96.6003 29.2279 95.9492 28.9023C95.2982 28.5768 94.7513 28.1406 94.3086 27.5938C93.8659 27.0339 93.5339 26.3828 93.3125 25.6406C93.0911 24.8984 92.9805 24.1107 92.9805 23.2773C92.9805 22.1445 93.1758 21.0182 93.5664 19.8984C93.9701 18.7656 94.5299 17.7565 95.2461 16.8711C95.9753 15.9857 96.8411 15.2695 97.8438 14.7227C98.8594 14.1628 99.9857 13.8828 101.223 13.8828C101.717 13.8828 102.212 13.9284 102.707 14.0195C103.202 14.1107 103.671 14.2604 104.113 14.4688C104.569 14.6641 104.979 14.9245 105.344 15.25C105.721 15.5755 106.027 15.9727 106.262 16.4414L103.352 17.6719C103.195 17.4245 103.013 17.1901 102.805 16.9688C102.609 16.7344 102.388 16.5326 102.141 16.3633C101.906 16.194 101.652 16.0573 101.379 15.9531C101.105 15.849 100.819 15.7969 100.52 15.7969C99.8424 15.7969 99.237 16.0052 98.7031 16.4219C98.1823 16.8385 97.7331 17.3529 97.3555 17.9648C96.9909 18.5768 96.7109 19.2279 96.5156 19.918C96.3203 20.6081 96.2227 21.2331 96.2227 21.793C96.2227 22.2878 96.2682 22.8477 96.3594 23.4727C96.4635 24.0846 96.6393 24.6641 96.8867 25.2109C97.1341 25.7578 97.4596 26.2201 97.8633 26.5977C98.2669 26.9753 98.7747 27.1641 99.3867 27.1641C99.8685 27.1641 100.285 27.0599 100.637 26.8516C100.988 26.6302 101.288 26.3503 101.535 26.0117C101.783 25.6602 101.984 25.263 102.141 24.8203C102.31 24.3646 102.434 23.9023 102.512 23.4336C102.603 22.9648 102.661 22.5026 102.688 22.0469C102.727 21.5781 102.746 21.1615 102.746 20.7969V19.4492L106.301 18.1992V26.1289C106.301 26.3893 106.366 26.6302 106.496 26.8516C106.626 27.0599 106.828 27.1641 107.102 27.1641C107.427 27.1641 107.72 27.0469 107.98 26.8125C108.254 26.5651 108.469 26.3177 108.625 26.0703L109.152 26.6758ZM121.848 15.2305L112.375 22.2812L111.691 21.4414L116.926 15.2305L111.691 8.16016L112.375 7.59375L121.848 15.2305Z" fill="#2DD4BF"/>
</svg>
